<svg width="395" height="312" viewBox="0 0 395 312" fill="none" xmlns="http://www.w3.org/2000/svg">
<rect x="0.5" y="0.5" width="394" height="310.939" fill="white" stroke="black"/>
<path d="M221.353 179.053C224.603 179.053 227.353 176.428 227.353 173.053V137.053C227.353 133.803 224.603 131.053 221.353 131.053H169.353C165.978 131.053 163.353 133.803 163.353 137.053V173.053C163.353 176.428 165.978 179.053 169.353 179.053H221.353ZM177.353 138.053C181.103 138.053 184.353 141.303 184.353 145.053C184.353 148.928 181.103 152.053 177.353 152.053C173.478 152.053 170.353 148.928 170.353 145.053C170.353 141.303 173.478 138.053 177.353 138.053ZM171.353 171.053V165.053L180.228 156.178C180.853 155.553 181.728 155.553 182.353 156.178L189.353 163.053L206.228 146.178C206.853 145.553 207.728 145.553 208.353 146.178L219.353 157.053V171.053H171.353Z" fill="black"/>
</svg>
